<!DOCTYPE svg PUBLIC "-//W3C//DTD SVG 1.1//EN" "http://www.w3.org/Graphics/SVG/1.1/DTD/svg11.dtd">
<!-- Uploaded to: SVG Repo, www.svgrepo.com, Transformed by: SVG Repo Mixer Tools -->
<svg fill="#DFD0B8" width="800px" height="800px" viewBox="0 0 24 24" xmlns="http://www.w3.org/2000/svg">
<g id="SVGRepo_bgCarrier" stroke-width="0"/>
<g id="SVGRepo_tracerCarrier" stroke-linecap="round" stroke-linejoin="round"/>
<g id="SVGRepo_iconCarrier">
<path d="M4,14a8,8,0,1,0,8-8A8,8,0,0,0,4,14Zm7-4.8a1,1,0,0,1,2,0V13h3a1,1,0,0,1,0,2H12a1,1,0,0,1-1-1ZM8,4A1,1,0,0,1,8,2h8a1,1,0,0,1,0,2Z"/>
</g>
</svg>